<svg xmlns="http://www.w3.org/2000/svg" viewBox="0 0 16 16"><defs><style>.cls-1{fill:#ff387d;}.cls-2{fill:#ffc322;}.cls-3{fill:#ff7f34;}.cls-3,.cls-8{stroke:#ff7f34;}.cls-12,.cls-3,.cls-6,.cls-7,.cls-8,.cls-9{stroke-linecap:round;}.cls-3,.cls-8,.cls-9{stroke-linejoin:round;}.cls-3,.cls-6,.cls-7,.cls-8,.cls-9{stroke-width:0.44px;}.cls-4{fill:#2c1d3c;}.cls-5{fill:#1c0c2d;}.cls-12,.cls-6,.cls-7,.cls-8,.cls-9{fill:none;}.cls-6{stroke:#1c0c2d;}.cls-12,.cls-6,.cls-7{stroke-miterlimit:10;}.cls-7{stroke:#2c1d3c;}.cls-9{stroke:#392b48;}.cls-10{opacity:0.45;}.cls-11{fill:#d032e3;}.cls-12{stroke:#ff387d;stroke-width:0.4px;}</style></defs><g id="Layer_2" data-name="Layer 2"><g id="headband"><rect class="cls-1" width="16" height="16" rx="3"/><circle class="cls-2" cx="13.51" cy="10.51" r="1.6"/><path class="cls-3" d="M13.85,10a.8.8,0,0,1,0,1.13"/><circle class="cls-2" cx="2.49" cy="10.51" r="1.6"/><path class="cls-3" d="M2.15,10a.8.8,0,0,0,0,1.13"/><path class="cls-4" d="M10.7,2.32a2.7,2.7,0,0,1-5.4,0C5.3.82,6.51.14,8,.14S10.7.82,10.7,2.32Z"/><path class="cls-5" d="M8.51,2.41h-1a6.92,6.92,0,0,0-2.15.35,2.7,2.7,0,0,0,5.32,0A6.92,6.92,0,0,0,8.51,2.41Z"/><path class="cls-6" d="M8.8,5.05a2.51,2.51,0,0,1,2.33-2.68"/><path class="cls-7" d="M8.62,5.07a2.7,2.7,0,0,1,2.5-2.89"/><path class="cls-6" d="M7.27,4.69A2.51,2.51,0,0,0,7,1.15"/><path class="cls-7" d="M7.41,4.81A2.69,2.69,0,0,0,7.1,1"/><path class="cls-6" d="M6.57,4.83A1.82,1.82,0,0,0,4.66,2.55"/><path class="cls-7" d="M6.75,4.87a2,2,0,0,0-2.09-2.5"/><path class="cls-4" d="M8,15.86c-4.06,0-5.83-2.1-5.83-5.33V7.72a5.15,5.15,0,0,1,5.42-5.1h.82a5.15,5.15,0,0,1,5.42,5.1v2.81C13.83,13.76,12.06,15.86,8,15.86Z"/><path class="cls-2" d="M6.79,3.16H9.21a4.17,4.17,0,0,1,4.17,4.17v3.32a4.84,4.84,0,0,1-4.84,4.84H7.79a5.17,5.17,0,0,1-5.17-5.17v-3A4.17,4.17,0,0,1,6.79,3.16Z"/><path class="cls-4" d="M2.52,8.76c1.4-1.19,4-2,5.48-2.84,1.46.81,4.08,1.65,5.48,2.84h.35v-1a5.15,5.15,0,0,0-5.42-5.1H7.59a5.15,5.15,0,0,0-5.42,5.1v1Z"/><line class="cls-8" x1="6.85" y1="13.53" x2="9.49" y2="13.53"/><line class="cls-9" x1="6.85" y1="13.17" x2="9.49" y2="13.17"/><g class="cls-10"><ellipse class="cls-1" cx="11.79" cy="11.32" rx="0.9" ry="0.55"/><ellipse class="cls-1" cx="4.21" cy="11.32" rx="0.9" ry="0.55"/></g><path class="cls-8" d="M8.8,11.23a.9.9,0,0,1-1.27,0"/><ellipse class="cls-4" cx="10.71" cy="9.87" rx="0.56" ry="0.59"/><ellipse class="cls-4" cx="5.29" cy="9.87" rx="0.56" ry="0.59"/><path class="cls-11" d="M13.85,7.8H2.15a.26.26,0,0,1-.25-.3l.26-1.37a.27.27,0,0,1,.26-.21H13.58a.27.27,0,0,1,.26.21L14.1,7.5A.26.26,0,0,1,13.85,7.8Z"/><line class="cls-12" x1="5.53" y1="7.61" x2="2.8" y2="7.61"/><line class="cls-12" x1="13.2" y1="7.61" x2="6.35" y2="7.61"/></g></g></svg>