<svg width="36" height="32" viewBox="0 0 36 32" fill="none" xmlns="http://www.w3.org/2000/svg">
<rect x="1.5" y="1.5" width="33" height="29" rx="3.5" stroke="#392B48" stroke-width="3"/>
<mask id="path-2-inside-1" fill="white">
<path fill-rule="evenodd" clip-rule="evenodd" d="M36 10.3662L20.7498 18.2158C19.3138 18.9549 17.6093 18.9549 16.1733 18.2158L0 9.89111V5C0 2.23858 2.23858 0 5 0H31C33.7614 0 36 2.23858 36 5V10.3662Z"/>
</mask>
<path d="M36 10.3662L37.373 13.0336L39 12.1962V10.3662H36ZM20.7498 18.2158L19.3768 15.5484L19.3768 15.5484L20.7498 18.2158ZM16.1733 18.2158L17.5462 15.5484L17.5462 15.5484L16.1733 18.2158ZM0 9.89111H-3V11.721L-1.37296 12.5585L0 9.89111ZM34.627 7.69885L19.3768 15.5484L22.1228 20.8832L37.373 13.0336L34.627 7.69885ZM19.3768 15.5484C18.8025 15.8441 18.1206 15.8441 17.5462 15.5484L14.8003 20.8832C17.0979 22.0658 19.8252 22.0658 22.1228 20.8832L19.3768 15.5484ZM17.5462 15.5484L1.37296 7.22372L-1.37296 12.5585L14.8003 20.8832L17.5462 15.5484ZM3 9.89111V5H-3V9.89111H3ZM3 5C3 3.89543 3.89543 3 5 3V-3C0.581723 -3 -3 0.581722 -3 5H3ZM5 3H31V-3H5V3ZM31 3C32.1046 3 33 3.89543 33 5H39C39 0.581723 35.4183 -3 31 -3V3ZM33 5V10.3662H39V5H33Z" fill="#392B48" mask="url(#path-2-inside-1)"/>
</svg>
