<svg width="33" height="33" viewBox="0 0 33 33" fill="none" xmlns="http://www.w3.org/2000/svg">
<path d="M2.86262 2.85211L29.828 11.6677L17.3825 14.0013L25.4202 22.0391C26.4574 23.0762 26.4574 24.6319 25.4202 25.4097C24.9017 25.9283 24.3831 26.1876 23.6053 26.1876C23.0867 26.1876 22.3088 25.9283 21.7903 25.4097L14.0118 17.372L11.6782 29.8175L2.86262 2.85211ZM2.86262 0C2.08477 0 1.30692 0.259283 0.788355 0.777849C0.0105057 1.5557 -0.248777 2.59283 0.269789 3.62996L9.08541 30.5954C9.34469 31.6325 10.6411 32.4104 11.6782 32.4104C11.6782 32.4104 11.6782 32.4104 11.9375 32.4104C13.2339 32.4104 14.2711 31.3732 14.5304 30.0768L15.5675 23.0762L19.9753 27.484C21.0124 28.5211 22.3088 29.0397 23.6053 29.0397C24.9017 29.0397 26.1981 28.5211 27.2352 27.484C29.3095 25.4097 29.3095 22.2983 27.2352 20.2241L23.0867 15.557L30.3466 14.0013C31.643 13.742 32.4209 12.7049 32.6802 11.4085C32.6802 10.112 31.9023 9.0749 30.8652 8.55634L3.64047 0.259283C3.38118 0 3.1219 0 2.86262 0Z" fill="#392B48"/>
</svg>
